<?xml version="1.0" encoding="utf-8"?>
<!-- Generator: Adobe Illustrator 27.3.1, SVG Export Plug-In . SVG Version: 6.00 Build 0)  -->
<svg version="1.1" id="Layer_1" xmlns="http://www.w3.org/2000/svg" xmlns:xlink="http://www.w3.org/1999/xlink" x="0px" y="0px"
	 viewBox="0 0 104 102" style="enable-background:new 0 0 104 102;" xml:space="preserve">
<style type="text/css">
	.st0{fill:#554193;}
</style>
<path class="st0" d="M104,104.2V61.9H84.1c0-5.9,0.7-11.2,2.1-15.9c1.4-4.8,3.4-9.3,6.1-13.6s6.6-7.9,11.7-10.8V2.2
	C94.2,6.5,86.3,12.1,80.1,19C74,26,69.4,33.6,66.5,41.8c-3,8.3-4.5,20.3-4.5,36.1v26.3H104z M42,104.2V61.9H22.1
	c0-5.9,0.7-11.2,2.1-15.9c1.4-4.8,3.4-9.3,6.1-13.6s6.6-7.9,11.7-10.8V2.2C32.3,6.5,24.4,12.1,18.2,19C12,26,7.4,33.6,4.5,41.8
	C1.5,50.1,0,62.1,0,77.9v26.3H42z"/>
</svg>
